<mxfile host="Electron" modified="2024-05-13T16:19:14.656Z" agent="Mozilla/5.0 (Macintosh; Intel Mac OS X 10_15_7) AppleWebKit/537.36 (KHTML, like Gecko) draw.io/24.2.5 Chrome/120.0.6099.109 Electron/28.1.0 Safari/537.36" etag="4fEIdmYz51W9ZzNbxXgz" version="24.2.5" type="device">
  <diagram name="Page-1" id="2YBvvXClWsGukQMizWep">
    <mxGraphModel dx="989" dy="626" grid="1" gridSize="10" guides="1" tooltips="1" connect="1" arrows="1" fold="1" page="1" pageScale="1" pageWidth="827" pageHeight="1169" math="0" shadow="0">
      <root>
        <mxCell id="0" />
        <mxCell id="1" parent="0" />
        <mxCell id="aM9ryv3xv72pqoxQDRHE-5" value="BTBrick" style="shape=umlLifeline;perimeter=lifelinePerimeter;whiteSpace=wrap;html=1;container=0;dropTarget=0;collapsible=0;recursiveResize=0;outlineConnect=0;portConstraint=eastwest;newEdgeStyle={&quot;edgeStyle&quot;:&quot;elbowEdgeStyle&quot;,&quot;elbow&quot;:&quot;vertical&quot;,&quot;curved&quot;:0,&quot;rounded&quot;:0};" parent="1" vertex="1">
          <mxGeometry x="20" y="20" width="100" height="600" as="geometry" />
        </mxCell>
        <mxCell id="aM9ryv3xv72pqoxQDRHE-6" value="" style="html=1;points=[];perimeter=orthogonalPerimeter;outlineConnect=0;targetShapes=umlLifeline;portConstraint=eastwest;newEdgeStyle={&quot;edgeStyle&quot;:&quot;elbowEdgeStyle&quot;,&quot;elbow&quot;:&quot;vertical&quot;,&quot;curved&quot;:0,&quot;rounded&quot;:0};" parent="aM9ryv3xv72pqoxQDRHE-5" vertex="1">
          <mxGeometry x="45" y="80" width="10" height="470" as="geometry" />
        </mxCell>
        <mxCell id="VgHauEdf2M3hdAsd8EfK-9" value="Observer" style="shape=umlLifeline;perimeter=lifelinePerimeter;whiteSpace=wrap;html=1;container=0;dropTarget=0;collapsible=0;recursiveResize=0;outlineConnect=0;portConstraint=eastwest;newEdgeStyle={&quot;edgeStyle&quot;:&quot;elbowEdgeStyle&quot;,&quot;elbow&quot;:&quot;vertical&quot;,&quot;curved&quot;:0,&quot;rounded&quot;:0};" parent="1" vertex="1">
          <mxGeometry x="201" y="20" width="100" height="600" as="geometry" />
        </mxCell>
        <mxCell id="VgHauEdf2M3hdAsd8EfK-10" value="" style="html=1;points=[];perimeter=orthogonalPerimeter;outlineConnect=0;targetShapes=umlLifeline;portConstraint=eastwest;newEdgeStyle={&quot;edgeStyle&quot;:&quot;elbowEdgeStyle&quot;,&quot;elbow&quot;:&quot;vertical&quot;,&quot;curved&quot;:0,&quot;rounded&quot;:0};" parent="VgHauEdf2M3hdAsd8EfK-9" vertex="1">
          <mxGeometry x="45" y="80" width="10" height="470" as="geometry" />
        </mxCell>
        <mxCell id="VgHauEdf2M3hdAsd8EfK-11" value="StateMachine" style="shape=umlLifeline;perimeter=lifelinePerimeter;whiteSpace=wrap;html=1;container=0;dropTarget=0;collapsible=0;recursiveResize=0;outlineConnect=0;portConstraint=eastwest;newEdgeStyle={&quot;edgeStyle&quot;:&quot;elbowEdgeStyle&quot;,&quot;elbow&quot;:&quot;vertical&quot;,&quot;curved&quot;:0,&quot;rounded&quot;:0};" parent="1" vertex="1">
          <mxGeometry x="380" y="20" width="100" height="600" as="geometry" />
        </mxCell>
        <mxCell id="VgHauEdf2M3hdAsd8EfK-12" value="" style="html=1;points=[];perimeter=orthogonalPerimeter;outlineConnect=0;targetShapes=umlLifeline;portConstraint=eastwest;newEdgeStyle={&quot;edgeStyle&quot;:&quot;elbowEdgeStyle&quot;,&quot;elbow&quot;:&quot;vertical&quot;,&quot;curved&quot;:0,&quot;rounded&quot;:0};" parent="VgHauEdf2M3hdAsd8EfK-11" vertex="1">
          <mxGeometry x="45" y="80" width="10" height="470" as="geometry" />
        </mxCell>
        <mxCell id="VgHauEdf2M3hdAsd8EfK-24" value="notifySubscribers(action: Action)" style="endArrow=open;startArrow=none;endFill=0;startFill=0;endSize=8;html=1;verticalAlign=bottom;labelBackgroundColor=none;strokeWidth=1;rounded=0;" parent="1" source="aM9ryv3xv72pqoxQDRHE-6" target="VgHauEdf2M3hdAsd8EfK-10" edge="1">
          <mxGeometry width="160" relative="1" as="geometry">
            <mxPoint x="80" y="120" as="sourcePoint" />
            <mxPoint x="240" y="120" as="targetPoint" />
            <Array as="points">
              <mxPoint x="160" y="180" />
            </Array>
          </mxGeometry>
        </mxCell>
        <mxCell id="VgHauEdf2M3hdAsd8EfK-26" value="action = inputStream.readInt" style="endArrow=open;startArrow=none;endFill=0;startFill=0;endSize=8;html=1;verticalAlign=bottom;labelBackgroundColor=none;strokeWidth=1;rounded=0;" parent="1" target="aM9ryv3xv72pqoxQDRHE-6" edge="1">
          <mxGeometry x="-0.2143" y="30" width="160" relative="1" as="geometry">
            <mxPoint x="75" y="120" as="sourcePoint" />
            <mxPoint x="130" y="170" as="targetPoint" />
            <Array as="points">
              <mxPoint x="100" y="120" />
              <mxPoint x="130" y="120" />
              <mxPoint x="130" y="150" />
            </Array>
            <mxPoint as="offset" />
          </mxGeometry>
        </mxCell>
        <mxCell id="VgHauEdf2M3hdAsd8EfK-28" value="alt" style="shape=umlFrame;whiteSpace=wrap;html=1;pointerEvents=0;recursiveResize=0;container=1;collapsible=0;width=50;" parent="1" vertex="1">
          <mxGeometry x="190" y="240" width="560" height="300" as="geometry" />
        </mxCell>
        <mxCell id="VgHauEdf2M3hdAsd8EfK-29" value="if state == USER_CTRL" style="text;align=center;html=1;" parent="VgHauEdf2M3hdAsd8EfK-28" vertex="1">
          <mxGeometry width="100" height="20" relative="1" as="geometry">
            <mxPoint x="90" as="offset" />
          </mxGeometry>
        </mxCell>
        <mxCell id="VgHauEdf2M3hdAsd8EfK-34" value="ManualDrive" style="shape=umlLifeline;perimeter=lifelinePerimeter;whiteSpace=wrap;html=1;container=0;dropTarget=0;collapsible=0;recursiveResize=0;outlineConnect=0;portConstraint=eastwest;newEdgeStyle={&quot;edgeStyle&quot;:&quot;elbowEdgeStyle&quot;,&quot;elbow&quot;:&quot;vertical&quot;,&quot;curved&quot;:0,&quot;rounded&quot;:0};" parent="VgHauEdf2M3hdAsd8EfK-28" vertex="1">
          <mxGeometry x="370" y="10" width="100" height="130" as="geometry" />
        </mxCell>
        <mxCell id="VgHauEdf2M3hdAsd8EfK-35" value="" style="html=1;points=[];perimeter=orthogonalPerimeter;outlineConnect=0;targetShapes=umlLifeline;portConstraint=eastwest;newEdgeStyle={&quot;edgeStyle&quot;:&quot;elbowEdgeStyle&quot;,&quot;elbow&quot;:&quot;vertical&quot;,&quot;curved&quot;:0,&quot;rounded&quot;:0};" parent="VgHauEdf2M3hdAsd8EfK-34" vertex="1">
          <mxGeometry x="45" y="50" width="10" height="60" as="geometry" />
        </mxCell>
        <mxCell id="VgHauEdf2M3hdAsd8EfK-37" value="drive(action)" style="endArrow=open;startArrow=none;endFill=0;startFill=0;endSize=8;html=1;verticalAlign=bottom;labelBackgroundColor=none;strokeWidth=1;rounded=0;" parent="VgHauEdf2M3hdAsd8EfK-34" source="VgHauEdf2M3hdAsd8EfK-35" target="VgHauEdf2M3hdAsd8EfK-35" edge="1">
          <mxGeometry x="0.0667" y="35" width="160" relative="1" as="geometry">
            <mxPoint x="60" y="70" as="sourcePoint" />
            <mxPoint x="60" y="100" as="targetPoint" />
            <Array as="points">
              <mxPoint x="85" y="70" />
              <mxPoint x="115" y="70" />
              <mxPoint x="115" y="100" />
            </Array>
            <mxPoint as="offset" />
          </mxGeometry>
        </mxCell>
        <mxCell id="VgHauEdf2M3hdAsd8EfK-36" value="ManualDrive.getInstance" style="endArrow=open;startArrow=none;endFill=0;startFill=0;endSize=8;html=1;verticalAlign=bottom;labelBackgroundColor=none;strokeWidth=1;rounded=0;" parent="VgHauEdf2M3hdAsd8EfK-28" edge="1">
          <mxGeometry x="0.3983" width="160" relative="1" as="geometry">
            <mxPoint x="65.5" y="69.66000000000008" as="sourcePoint" />
            <mxPoint x="414.4999999999998" y="69.65999999999985" as="targetPoint" />
            <Array as="points">
              <mxPoint x="154.5" y="69.65999999999997" />
            </Array>
            <mxPoint as="offset" />
          </mxGeometry>
        </mxCell>
        <mxCell id="VgHauEdf2M3hdAsd8EfK-30" value="getCurrentState()" style="html=1;verticalAlign=bottom;endArrow=block;edgeStyle=elbowEdgeStyle;elbow=vertical;curved=0;rounded=0;" parent="1" edge="1">
          <mxGeometry relative="1" as="geometry">
            <mxPoint x="256" y="210" as="sourcePoint" />
            <Array as="points">
              <mxPoint x="340.5" y="210" />
            </Array>
            <mxPoint x="425" y="210" as="targetPoint" />
          </mxGeometry>
        </mxCell>
        <mxCell id="VgHauEdf2M3hdAsd8EfK-48" value="IDriveStrategy" style="shape=umlLifeline;perimeter=lifelinePerimeter;whiteSpace=wrap;html=1;container=0;dropTarget=0;collapsible=0;recursiveResize=0;outlineConnect=0;portConstraint=eastwest;newEdgeStyle={&quot;edgeStyle&quot;:&quot;elbowEdgeStyle&quot;,&quot;elbow&quot;:&quot;vertical&quot;,&quot;curved&quot;:0,&quot;rounded&quot;:0};" parent="1" vertex="1">
          <mxGeometry x="560" y="390" width="100" height="230" as="geometry" />
        </mxCell>
        <mxCell id="VgHauEdf2M3hdAsd8EfK-49" value="" style="html=1;points=[];perimeter=orthogonalPerimeter;outlineConnect=0;targetShapes=umlLifeline;portConstraint=eastwest;newEdgeStyle={&quot;edgeStyle&quot;:&quot;elbowEdgeStyle&quot;,&quot;elbow&quot;:&quot;vertical&quot;,&quot;curved&quot;:0,&quot;rounded&quot;:0};" parent="VgHauEdf2M3hdAsd8EfK-48" vertex="1">
          <mxGeometry x="45" y="50" width="10" height="130" as="geometry" />
        </mxCell>
        <mxCell id="VgHauEdf2M3hdAsd8EfK-53" value="act()" style="endArrow=open;startArrow=none;endFill=0;startFill=0;endSize=8;html=1;verticalAlign=bottom;labelBackgroundColor=none;strokeWidth=1;rounded=0;" parent="VgHauEdf2M3hdAsd8EfK-48" source="VgHauEdf2M3hdAsd8EfK-49" target="VgHauEdf2M3hdAsd8EfK-49" edge="1">
          <mxGeometry x="0.0667" y="25" width="160" relative="1" as="geometry">
            <mxPoint x="60" y="110" as="sourcePoint" />
            <mxPoint x="60" y="140" as="targetPoint" />
            <Array as="points">
              <mxPoint x="85" y="110" />
              <mxPoint x="115" y="110" />
              <mxPoint x="115" y="140" />
            </Array>
            <mxPoint as="offset" />
          </mxGeometry>
        </mxCell>
        <mxCell id="VgHauEdf2M3hdAsd8EfK-50" value="getStrategy()" style="html=1;verticalAlign=bottom;endArrow=block;edgeStyle=elbowEdgeStyle;elbow=vertical;curved=0;rounded=0;" parent="1" source="VgHauEdf2M3hdAsd8EfK-10" target="VgHauEdf2M3hdAsd8EfK-49" edge="1">
          <mxGeometry x="0.341" relative="1" as="geometry">
            <mxPoint x="260" y="450" as="sourcePoint" />
            <Array as="points">
              <mxPoint x="345" y="450" />
            </Array>
            <mxPoint x="430" y="450" as="targetPoint" />
            <mxPoint as="offset" />
          </mxGeometry>
        </mxCell>
        <mxCell id="MnhJiCePQzwTxGwmFQ9T-3" value="return State" style="html=1;verticalAlign=bottom;labelBackgroundColor=none;endArrow=open;endFill=0;dashed=1;rounded=0;" edge="1" parent="1">
          <mxGeometry width="160" relative="1" as="geometry">
            <mxPoint x="424.9999999999998" y="230.0000000000001" as="sourcePoint" />
            <mxPoint x="256" y="230.0000000000001" as="targetPoint" />
          </mxGeometry>
        </mxCell>
        <mxCell id="MnhJiCePQzwTxGwmFQ9T-4" value="return IDriveStrategy" style="html=1;verticalAlign=bottom;labelBackgroundColor=none;endArrow=open;endFill=0;dashed=1;rounded=0;" edge="1" parent="1">
          <mxGeometry x="0.4585" width="160" relative="1" as="geometry">
            <mxPoint x="604.4999999999998" y="480" as="sourcePoint" />
            <mxPoint x="255.5" y="480" as="targetPoint" />
            <mxPoint as="offset" />
          </mxGeometry>
        </mxCell>
        <mxCell id="MnhJiCePQzwTxGwmFQ9T-5" value="Else" style="endArrow=none;startArrow=none;endFill=0;startFill=0;endSize=8;html=1;verticalAlign=bottom;dashed=1;labelBackgroundColor=none;dashPattern=10 10;rounded=0;exitX=0.003;exitY=0.467;exitDx=0;exitDy=0;exitPerimeter=0;entryX=0.998;entryY=0.456;entryDx=0;entryDy=0;entryPerimeter=0;" edge="1" parent="1" source="VgHauEdf2M3hdAsd8EfK-28" target="VgHauEdf2M3hdAsd8EfK-28">
          <mxGeometry x="-0.5401" y="-31" width="160" relative="1" as="geometry">
            <mxPoint x="300" y="380" as="sourcePoint" />
            <mxPoint x="460" y="380" as="targetPoint" />
            <mxPoint as="offset" />
          </mxGeometry>
        </mxCell>
      </root>
    </mxGraphModel>
  </diagram>
</mxfile>
